<mxfile host="app.diagrams.net" modified="2023-09-09T11:56:41.537Z" agent="Mozilla/5.0 (X11; Ubuntu; Linux x86_64; rv:109.0) Gecko/20100101 Firefox/110.0" version="21.7.4" etag="X_3J7JGThCItkO7jxaF2" type="github">
  <diagram name="第 1 页" id="vXQxA0N4TIqr1XAzxCDG">
    <mxGraphModel>
      <root>
        <mxCell id="0" />
        <mxCell id="1" parent="0" />
      </root>
    </mxGraphModel>
  </diagram>
</mxfile>
